<svg xmlns="http://www.w3.org/2000/svg" width="200" height="200"><rect x="0" y="0" width="200" height="200" fill="#000"></rect><rect x="28.571428571428573" y="28.571428571428573" width="28.571428571428573" height="28.571428571428573" fill="#fff"></rect><rect x="57.142857142857146" y="28.571428571428573" width="28.571428571428573" height="28.571428571428573" fill="#fff"></rect><rect x="85.71428571428572" y="28.571428571428573" width="28.571428571428573" height="28.571428571428573" fill="#fff"></rect><rect x="114.28571428571429" y="28.571428571428573" width="28.571428571428573" height="28.571428571428573" fill="#fff"></rect><rect x="142.85714285714286" y="28.571428571428573" width="28.571428571428573" height="28.571428571428573" fill="#fff"></rect><rect x="28.571428571428573" y="57.142857142857146" width="28.571428571428573" height="28.571428571428573" fill="#fff"></rect><rect x="57.142857142857146" y="57.142857142857146" width="28.571428571428573" height="28.571428571428573" fill="#000000"></rect><rect x="85.71428571428572" y="57.142857142857146" width="28.571428571428573" height="28.571428571428573" fill="#fff"></rect><rect x="114.28571428571429" y="57.142857142857146" width="28.571428571428573" height="28.571428571428573" fill="#fff"></rect><rect x="142.85714285714286" y="57.142857142857146" width="28.571428571428573" height="28.571428571428573" fill="#fff"></rect><rect x="28.571428571428573" y="85.71428571428572" width="28.571428571428573" height="28.571428571428573" fill="#fff"></rect><rect x="57.142857142857146" y="85.71428571428572" width="28.571428571428573" height="28.571428571428573" fill="#fff"></rect><rect x="85.71428571428572" y="85.71428571428572" width="28.571428571428573" height="28.571428571428573" fill="#fff"></rect><rect x="114.28571428571429" y="85.71428571428572" width="28.571428571428573" height="28.571428571428573" fill="#000000"></rect><rect x="142.85714285714286" y="85.71428571428572" width="28.571428571428573" height="28.571428571428573" fill="#fff"></rect><rect x="28.571428571428573" y="114.28571428571429" width="28.571428571428573" height="28.571428571428573" fill="#fff"></rect><rect x="57.142857142857146" y="114.28571428571429" width="28.571428571428573" height="28.571428571428573" fill="#fff"></rect><rect x="85.71428571428572" y="114.28571428571429" width="28.571428571428573" height="28.571428571428573" fill="#fff"></rect><rect x="114.28571428571429" y="114.28571428571429" width="28.571428571428573" height="28.571428571428573" fill="#fff"></rect><rect x="142.85714285714286" y="114.28571428571429" width="28.571428571428573" height="28.571428571428573" fill="#fff"></rect><rect x="28.571428571428573" y="142.85714285714286" width="28.571428571428573" height="28.571428571428573" fill="#000000"></rect><rect x="57.142857142857146" y="142.85714285714286" width="28.571428571428573" height="28.571428571428573" fill="#fff"></rect><rect x="85.71428571428572" y="142.85714285714286" width="28.571428571428573" height="28.571428571428573" fill="#fff"></rect><rect x="114.28571428571429" y="142.85714285714286" width="28.571428571428573" height="28.571428571428573" fill="#fff"></rect><rect x="142.85714285714286" y="142.85714285714286" width="28.571428571428573" height="28.571428571428573" fill="#fff"></rect></svg>