<svg xmlns="http://www.w3.org/2000/svg" viewBox="0 0 32 32" width="32" height="32">
  <defs>
    <style>
      .core { 
        animation: coreRotate 4s linear infinite;
        transform-origin: 16px 16px;
      }
      .node { 
        animation: nodePulse 2s ease-in-out infinite;
        transform-origin: center;
      }
      .connection { 
        animation: connectionFade 3s ease-in-out infinite;
      }
      
      @keyframes coreRotate {
        0% { transform: rotate(0deg); }
        100% { transform: rotate(360deg); }
      }
      
      @keyframes nodePulse {
        0%, 100% { transform: scale(1); opacity: 0.8; }
        50% { transform: scale(1.2); opacity: 1; }
      }
      
      @keyframes connectionFade {
        0%, 100% { opacity: 0.3; }
        50% { opacity: 0.7; }
      }
    </style>
  </defs>
  
  <!-- Background (transparent) -->
  <rect width="32" height="32" fill="none"/>
  
  <!-- Connection lines -->
  <g class="connection">
    <line x1="16" y1="16" x2="8" y2="8" stroke="#989C9E" stroke-width="0.5"/>
    <line x1="16" y1="16" x2="24" y2="8" stroke="#989C9E" stroke-width="0.5"/>
    <line x1="16" y1="16" x2="8" y2="24" stroke="#989C9E" stroke-width="0.5"/>
    <line x1="16" y1="16" x2="24" y2="24" stroke="#989C9E" stroke-width="0.5"/>
    <line x1="16" y1="16" x2="16" y2="4" stroke="#989C9E" stroke-width="0.5"/>
    <line x1="16" y1="16" x2="16" y2="28" stroke="#989C9E" stroke-width="0.5"/>
    <line x1="16" y1="16" x2="4" y2="16" stroke="#989C9E" stroke-width="0.5"/>
    <line x1="16" y1="16" x2="28" y2="16" stroke="#989C9E" stroke-width="0.5"/>
  </g>
  
  <!-- Outer nodes -->
  <circle class="node" cx="8" cy="8" r="1.5" fill="#BEC3C5"/>
  <circle class="node" cx="24" cy="8" r="1.5" fill="#BEC3C5" style="animation-delay: 0.25s"/>
  <circle class="node" cx="8" cy="24" r="1.5" fill="#BEC3C5" style="animation-delay: 0.5s"/>
  <circle class="node" cx="24" cy="24" r="1.5" fill="#BEC3C5" style="animation-delay: 0.75s"/>
  <circle class="node" cx="16" cy="4" r="1.5" fill="#BEC3C5" style="animation-delay: 1s"/>
  <circle class="node" cx="16" cy="28" r="1.5" fill="#BEC3C5" style="animation-delay: 1.25s"/>
  <circle class="node" cx="4" cy="16" r="1.5" fill="#BEC3C5" style="animation-delay: 1.5s"/>
  <circle class="node" cx="28" cy="16" r="1.5" fill="#BEC3C5" style="animation-delay: 1.75s"/>
  
  <!-- Central core -->
  <circle class="core" cx="16" cy="16" r="3" fill="#323334"/>
</svg>
