<svg xmlns="http://www.w3.org/2000/svg" viewBox="0 0 32 32" width="32" height="32">
  <!-- Background (transparent) -->
  <rect width="32" height="32" fill="none"/>
  
  <!-- Connection lines -->
  <g opacity="0.5">
    <line x1="16" y1="16" x2="8" y2="8" stroke="#989C9E" stroke-width="0.5"/>
    <line x1="16" y1="16" x2="24" y2="8" stroke="#989C9E" stroke-width="0.5"/>
    <line x1="16" y1="16" x2="8" y2="24" stroke="#989C9E" stroke-width="0.5"/>
    <line x1="16" y1="16" x2="24" y2="24" stroke="#989C9E" stroke-width="0.5"/>
    <line x1="16" y1="16" x2="16" y2="4" stroke="#989C9E" stroke-width="0.5"/>
    <line x1="16" y1="16" x2="16" y2="28" stroke="#989C9E" stroke-width="0.5"/>
    <line x1="16" y1="16" x2="4" y2="16" stroke="#989C9E" stroke-width="0.5"/>
    <line x1="16" y1="16" x2="28" y2="16" stroke="#989C9E" stroke-width="0.5"/>
  </g>
  
  <!-- Outer nodes -->
  <circle cx="8" cy="8" r="1.5" fill="#BEC3C5"/>
  <circle cx="24" cy="8" r="1.5" fill="#BEC3C5"/>
  <circle cx="8" cy="24" r="1.5" fill="#BEC3C5"/>
  <circle cx="24" cy="24" r="1.5" fill="#BEC3C5"/>
  <circle cx="16" cy="4" r="1.5" fill="#BEC3C5"/>
  <circle cx="16" cy="28" r="1.5" fill="#BEC3C5"/>
  <circle cx="4" cy="16" r="1.5" fill="#BEC3C5"/>
  <circle cx="28" cy="16" r="1.5" fill="#BEC3C5"/>
  
  <!-- Central core -->
  <circle cx="16" cy="16" r="3" fill="#323334"/>
</svg>
